<svg width="26" height="24" viewBox="0 0 26 24" fill="none" xmlns="http://www.w3.org/2000/svg">
<path d="M2.16667 24C1.98968 24.0002 1.81534 23.9567 1.65891 23.8733C1.50247 23.7899 1.3687 23.6693 1.26929 23.5218C1.16989 23.3743 1.10787 23.2046 1.08868 23.0274C1.06948 22.8502 1.09368 22.671 1.15917 22.5055C1.17 22.4804 2.14933 19.9789 2.76033 16.7531C0.976084 14.9335 0 12.6873 0 10.3636C0 4.64945 5.83158 0 13 0C20.1684 0 26 4.64945 26 10.3636C26 16.0778 20.1684 20.7273 13 20.7273C11.3988 20.7273 9.8345 20.4938 8.33625 20.0335C6.5195 21.804 4.5825 23.1109 2.56858 23.9215C2.44094 23.9736 2.30443 24.0003 2.16667 24ZM13 2.18182C7.0265 2.18182 2.16667 5.85164 2.16667 10.3636C2.16667 12.2487 3.05175 14.0945 4.65942 15.5618C4.9335 15.8127 5.06242 16.1869 4.9985 16.5556C4.75586 17.9586 4.43468 19.3466 4.0365 20.7131C5.14583 20.0007 6.22592 19.1018 7.26808 18.0273C7.41263 17.8781 7.59658 17.7738 7.79817 17.7266C7.99975 17.6794 8.21054 17.6914 8.40558 17.7611C9.86592 18.2815 11.4118 18.5455 13 18.5455C18.9735 18.5455 23.8333 14.8756 23.8333 10.3636C23.8333 5.85164 18.9735 2.18182 13 2.18182Z" fill="black"/>
</svg>
