<svg width="17" height="25" viewBox="0 0 17 25" fill="none" xmlns="http://www.w3.org/2000/svg">
<path d="M15.5833 10.375V12.4583C15.5833 14.3922 14.8151 16.2469 13.4477 17.6143C12.0802 18.9818 10.2255 19.75 8.29167 19.75M8.29167 19.75C6.3578 19.75 4.50313 18.9818 3.13568 17.6143C1.76823 16.2469 1 14.3922 1 12.4583V10.375M8.29167 19.75V23.9167M4.125 23.9167H12.4583M8.29167 1C7.46286 1 6.66801 1.32924 6.08196 1.91529C5.49591 2.50134 5.16667 3.2962 5.16667 4.125V12.4583C5.16667 13.2871 5.49591 14.082 6.08196 14.668C6.66801 15.2541 7.46286 15.5833 8.29167 15.5833C9.12047 15.5833 9.91532 15.2541 10.5014 14.668C11.0874 14.082 11.4167 13.2871 11.4167 12.4583V4.125C11.4167 3.2962 11.0874 2.50134 10.5014 1.91529C9.91532 1.32924 9.12047 1 8.29167 1Z" stroke="black" stroke-width="2" stroke-linecap="round" stroke-linejoin="round"/>
</svg>
