<svg width="30" height="30" viewBox="0 0 30 30" fill="none" xmlns="http://www.w3.org/2000/svg">
<circle cx="15" cy="15" r="14.5" stroke="black"/>
<path d="M22.5 15.5C22.7761 15.5 23 15.2761 23 15C23 14.7239 22.7761 14.5 22.5 14.5L22.5 15L22.5 15.5ZM7.89645 14.6464C7.70118 14.8417 7.70118 15.1583 7.89645 15.3536L11.0784 18.5355C11.2737 18.7308 11.5903 18.7308 11.7855 18.5355C11.9808 18.3403 11.9808 18.0237 11.7855 17.8284L8.95711 15L11.7855 12.1716C11.9808 11.9763 11.9808 11.6597 11.7855 11.4645C11.5903 11.2692 11.2737 11.2692 11.0784 11.4645L7.89645 14.6464ZM22.5 15L22.5 14.5L8.25 14.5L8.25 15L8.25 15.5L22.5 15.5L22.5 15Z" fill="black"/>
</svg>
