<svg width="17" height="17" viewBox="0 0 17 17" fill="none" xmlns="http://www.w3.org/2000/svg">
<path d="M8.5 17C7.33833 17 6.24042 16.7769 5.20625 16.3306C4.17208 15.8844 3.26896 15.2752 2.49688 14.5031C1.72479 13.731 1.11563 12.8279 0.669375 11.7938C0.223125 10.7596 0 9.66167 0 8.5C0 7.32417 0.223125 6.22271 0.669375 5.19563C1.11563 4.16854 1.72479 3.26896 2.49688 2.49688C3.26896 1.72479 4.17208 1.11563 5.20625 0.669375C6.24042 0.223125 7.33833 0 8.5 0C9.67583 0 10.7773 0.223125 11.8044 0.669375C12.8315 1.11563 13.731 1.72479 14.5031 2.49688C15.2752 3.26896 15.8844 4.16854 16.3306 5.19563C16.7769 6.22271 17 7.32417 17 8.5C17 9.66167 16.7769 10.7596 16.3306 11.7938C15.8844 12.8279 15.2752 13.731 14.5031 14.5031C13.731 15.2752 12.8315 15.8844 11.8044 16.3306C10.7773 16.7769 9.67583 17 8.5 17ZM8.5 15.2575C8.86833 14.7475 9.18708 14.2163 9.45625 13.6638C9.72542 13.1113 9.945 12.5233 10.115 11.9H6.885C7.055 12.5233 7.27458 13.1113 7.54375 13.6638C7.81292 14.2163 8.13167 14.7475 8.5 15.2575ZM6.29 14.9175C6.035 14.45 5.81188 13.9648 5.62063 13.4619C5.42938 12.959 5.27 12.4383 5.1425 11.9H2.635C3.04583 12.6083 3.55938 13.2246 4.17562 13.7488C4.79187 14.2729 5.49667 14.6625 6.29 14.9175ZM10.71 14.9175C11.5033 14.6625 12.2081 14.2729 12.8244 13.7488C13.4406 13.2246 13.9542 12.6083 14.365 11.9H11.8575C11.73 12.4383 11.5706 12.959 11.3794 13.4619C11.1881 13.9648 10.965 14.45 10.71 14.9175ZM1.9125 10.2H4.8025C4.76 9.91667 4.72813 9.63688 4.70687 9.36063C4.68563 9.08438 4.675 8.7975 4.675 8.5C4.675 8.2025 4.68563 7.91563 4.70687 7.63938C4.72813 7.36313 4.76 7.08333 4.8025 6.8H1.9125C1.84167 7.08333 1.78854 7.36313 1.75313 7.63938C1.71771 7.91563 1.7 8.2025 1.7 8.5C1.7 8.7975 1.71771 9.08438 1.75313 9.36063C1.78854 9.63688 1.84167 9.91667 1.9125 10.2ZM6.5025 10.2H10.4975C10.54 9.91667 10.5719 9.63688 10.5931 9.36063C10.6144 9.08438 10.625 8.7975 10.625 8.5C10.625 8.2025 10.6144 7.91563 10.5931 7.63938C10.5719 7.36313 10.54 7.08333 10.4975 6.8H6.5025C6.46 7.08333 6.42812 7.36313 6.40688 7.63938C6.38562 7.91563 6.375 8.2025 6.375 8.5C6.375 8.7975 6.38562 9.08438 6.40688 9.36063C6.42812 9.63688 6.46 9.91667 6.5025 10.2ZM12.1975 10.2H15.0875C15.1583 9.91667 15.2115 9.63688 15.2469 9.36063C15.2823 9.08438 15.3 8.7975 15.3 8.5C15.3 8.2025 15.2823 7.91563 15.2469 7.63938C15.2115 7.36313 15.1583 7.08333 15.0875 6.8H12.1975C12.24 7.08333 12.2719 7.36313 12.2931 7.63938C12.3144 7.91563 12.325 8.2025 12.325 8.5C12.325 8.7975 12.3144 9.08438 12.2931 9.36063C12.2719 9.63688 12.24 9.91667 12.1975 10.2ZM11.8575 5.1H14.365C13.9542 4.39167 13.4406 3.77542 12.8244 3.25125C12.2081 2.72708 11.5033 2.3375 10.71 2.0825C10.965 2.55 11.1881 3.03521 11.3794 3.53813C11.5706 4.04104 11.73 4.56167 11.8575 5.1ZM6.885 5.1H10.115C9.945 4.47667 9.72542 3.88875 9.45625 3.33625C9.18708 2.78375 8.86833 2.2525 8.5 1.7425C8.13167 2.2525 7.81292 2.78375 7.54375 3.33625C7.27458 3.88875 7.055 4.47667 6.885 5.1ZM2.635 5.1H5.1425C5.27 4.56167 5.42938 4.04104 5.62063 3.53813C5.81188 3.03521 6.035 2.55 6.29 2.0825C5.49667 2.3375 4.79187 2.72708 4.17562 3.25125C3.55938 3.77542 3.04583 4.39167 2.635 5.1Z" fill="black"/>
</svg>
