<svg width="17" height="11" viewBox="0 0 17 11" fill="none" xmlns="http://www.w3.org/2000/svg">
<path d="M8.36719 7.35254C8.76629 7.32004 9.03955 7.09813 9.22549 6.77807L9.22682 6.77577C9.41508 6.45111 9.51502 6.02436 9.56516 5.59039C9.59139 5.36093 9.60699 5.12096 9.62293 4.87804C9.70096 3.67789 9.78562 2.38253 11.1642 1.83137C11.373 1.74803 11.5929 1.69485 11.817 1.67347C12.2935 1.62751 12.7799 1.72435 13.1996 1.96202C13.6196 2.19969 13.9732 2.57818 14.1844 3.09389C14.2813 3.33123 14.3481 3.59746 14.3773 3.89225V3.8975C14.3733 4.62133 14.4905 5.63799 14.8086 6.38382C15.0377 6.92021 15.3704 7.31512 15.8356 7.35254C15.8545 7.35385 15.8688 7.37059 15.8674 7.38931L15.8654 7.39817C15.7791 7.63912 15.3807 7.82459 14.9042 7.91487C15.6128 8.08524 16.1045 8.29074 16.4375 8.65347C16.8473 9.09959 17 9.76401 17 10.8677C17 10.9405 16.9402 10.9996 16.8665 10.9996H11.314C11.3233 10.9543 11.3286 10.9074 11.3286 10.8591V10.3999C11.3286 9.99774 11.2246 9.60841 11.045 9.25257C11.3824 9.38913 11.721 9.46463 12.06 9.47481C12.9426 9.50107 13.8444 9.08449 14.7678 8.15286C14.6336 8.12168 14.4908 8.09148 14.3398 8.0616L14.3182 8.05701C14.189 8.03173 14.0071 7.99595 13.8195 7.94441C13.7547 7.93456 13.692 7.92274 13.6315 7.90797C13.4436 7.863 13.2779 7.79374 13.1541 7.69755C12.9648 7.55114 12.8709 7.34433 12.9339 7.0676C12.3675 7.41721 11.7725 7.4159 11.209 7.05578L11.1729 7.03576C11.1699 7.19989 11.0646 7.68573 10.9039 7.78257C10.6595 7.92931 10.276 7.99792 9.97654 8.0465C9.60666 7.79111 9.1893 7.60892 8.76098 7.52718C8.62484 7.50125 8.48805 7.47498 8.35689 7.44446C8.34926 7.42936 8.34229 7.41393 8.33664 7.39817C8.33033 7.38011 8.33996 7.36042 8.35789 7.35418L8.36719 7.35254ZM6.50316 6.653C6.51014 6.64479 6.51777 6.63757 6.52641 6.631L6.57555 6.58504C6.93912 6.24758 7.20707 5.99875 7.15527 5.39211C7.15361 5.36191 7.16092 5.33073 7.17885 5.30381C7.1995 5.27287 7.23171 5.25128 7.26843 5.24377C7.30515 5.23627 7.34338 5.24345 7.37475 5.26376C7.39998 5.28017 7.42555 5.2933 7.45145 5.30249C7.4727 5.31037 7.49328 5.31497 7.51221 5.31595C7.54906 5.31792 7.56799 5.31792 7.57297 5.31661C7.57795 5.31267 7.58725 5.28838 7.60053 5.25096L7.78115 4.74542C7.80373 4.65974 7.80572 4.59868 7.79244 4.55798C7.7868 4.54025 7.77717 4.52712 7.76488 4.51924L7.75957 4.51629C7.73766 4.5048 7.70645 4.50086 7.67059 4.50381C7.59123 4.50972 7.49859 4.54747 7.41625 4.60919C7.38637 4.63151 7.34719 4.64234 7.30701 4.63545C7.26993 4.62915 7.23688 4.60859 7.2151 4.57826C7.19332 4.54793 7.18458 4.5103 7.1908 4.47361C7.32461 3.70218 7.26352 3.19992 7.09717 2.85721C6.95174 2.55684 6.71932 2.37465 6.46764 2.23875C5.90883 2.66222 5.51537 2.71047 5.12324 2.7584C4.79852 2.79779 4.47445 2.83784 4.04547 3.13099C3.84127 3.27083 3.7058 3.43956 3.63641 3.6362C3.56668 3.83414 3.56137 4.06393 3.61781 4.32392C3.62645 4.35215 3.62611 4.38301 3.61516 4.41255C3.58826 4.48543 3.50658 4.52252 3.43287 4.49593C3.39037 4.48051 3.34621 4.46278 3.30338 4.44932C3.1357 4.39154 3.01684 4.36463 2.97102 4.46902C2.96736 4.50217 2.96504 4.55371 2.96338 4.60689V4.60787C2.96139 4.68338 2.96139 4.76249 2.96338 4.80352V4.80549C2.96836 4.90266 2.98994 5.03134 3.03709 5.13934C3.06664 5.20762 3.10582 5.26507 3.15463 5.29265C3.17887 5.3061 3.20643 5.31234 3.23498 5.31267C3.27018 5.31333 3.30936 5.30611 3.35053 5.29396C3.3716 5.2868 3.39408 5.28465 3.41614 5.28768C3.43821 5.29071 3.45925 5.29884 3.47755 5.3114C3.49585 5.32396 3.5109 5.34061 3.52148 5.35999C3.53206 5.37937 3.53788 5.40095 3.53846 5.42297C3.55373 6.05817 3.83895 6.30109 4.18559 6.59621L4.33002 6.72029C4.55779 6.92054 4.79354 7.05775 5.02994 7.12833C5.21189 7.16575 5.40215 7.16969 5.58477 7.14639C5.71193 7.12997 5.83445 7.10043 5.94801 7.06005C6.11203 6.98356 6.27307 6.87162 6.42879 6.72292L6.50316 6.653ZM6.77178 6.78759C7.07027 7.7724 7.8698 7.92603 8.65473 8.07572C9.71955 8.27925 10.7625 9.27358 10.7625 10.3999V10.8591C10.7625 10.9366 10.6984 10.9999 10.6204 10.9999H0.142109C0.06375 10.9999 0 10.9366 0 10.8591V10.4439C0 9.09007 1.10732 8.29041 2.22627 8.14236C3.04273 8.03469 3.8665 7.92504 4.15736 6.94417L4.14143 6.93006L3.99998 6.80794C3.63143 6.49411 3.32297 6.2315 3.2642 5.59236L3.23166 5.59268C3.15629 5.5917 3.08324 5.57463 3.01484 5.53622C2.90494 5.47451 2.82791 5.36913 2.77611 5.2503C2.71436 5.10881 2.6868 4.94402 2.68016 4.81961V4.81698C2.67816 4.77135 2.67816 4.68403 2.68016 4.60032V4.59901C2.68248 4.52646 2.68613 4.45589 2.69178 4.41584C2.69344 4.40369 2.69676 4.39253 2.70107 4.3817C2.77844 4.16898 2.89664 4.10004 3.0527 4.10431L2.9501 4.03701C2.89432 3.34863 3.05734 2.15438 2.30131 1.92853C3.7317 0.180825 5.38023 -0.769516 6.61838 0.784842C8.10986 0.862314 8.70785 3.2055 7.51852 4.19196L7.51154 4.24973C7.55836 4.23594 7.60484 4.22708 7.64934 4.2238C7.73766 4.21691 7.82166 4.23102 7.89271 4.26812L7.90633 4.27632C7.97805 4.31801 8.03316 4.38301 8.06238 4.4723C8.09193 4.56323 8.09293 4.67977 8.05408 4.82223L7.86814 5.34418C7.83826 5.42855 7.8107 5.48797 7.75027 5.53557L7.73865 5.54377C7.67889 5.58579 7.60617 5.60155 7.49793 5.59597L7.44613 5.59039C7.43418 6.17077 7.1473 6.43864 6.77178 6.78759ZM6.55861 7.00917C6.12398 7.60268 4.85563 7.61548 4.38182 7.14442C4.26361 7.63124 3.95682 7.96772 3.50293 8.18667C4.80449 8.97124 6.08713 8.94793 7.34951 8.02221C6.86408 7.80457 6.61871 7.45693 6.55861 7.00917ZM13.1601 6.56765C13.7634 5.90782 13.9241 5.46302 13.8444 4.57406C13.8314 4.43192 13.8102 4.28748 13.7806 4.14107C13.2886 3.91555 12.9665 3.41987 12.8018 2.67502C12.6049 4.09315 10.8435 4.03209 10.4005 4.29011C10.4005 4.4096 10.3976 4.5222 10.3949 4.63053C10.3746 5.36027 10.4294 5.74861 10.801 6.33129C10.8631 6.42879 10.9238 6.523 10.9972 6.60113C11.5889 7.23206 12.6006 7.15328 13.1601 6.56765Z" fill="black"/>
</svg>
